HIERARCHY
ROOT reference
{
  OFFSET 0 0 0
  CHANNELS 6 Xposition Yposition Zposition Zrotation Xrotation Yrotation
  JOINT Hips
  {
    OFFSET 35.925 87.6582 86.2347
    CHANNELS 6 Xposition Yposition Zposition Zrotation Xrotation Yrotation
    JOINT Spine
    {
      OFFSET 0 7.76127 0
      CHANNELS 6 Xposition Yposition Zposition Zrotation Xrotation Yrotation
      JOINT Spine1
      {
        OFFSET 0 24.7858 0
        CHANNELS 6 Xposition Yposition Zposition Zrotation Xrotation Yrotation
        JOINT Neck
        {
          OFFSET 0 24.684 2.244
          CHANNELS 6 Xposition Yposition Zposition Zrotation Xrotation Yrotation
          JOINT Head
          {
            OFFSET 0 13.2509 -1.89299
            CHANNELS 6 Xposition Yposition Zposition Zrotation Xrotation Yrotation
            End Site
            {
              OFFSET 0 23.6624 0
            }
          }
        }
        JOINT LeftShoulder
        {
          OFFSET 3.79413 23.4442 -0.177979
          CHANNELS 6 Xposition Yposition Zposition Zrotation Xrotation Yrotation
          JOINT LeftArm
          {
            OFFSET 9.21107 0 0
            CHANNELS 6 Xposition Yposition Zposition Zrotation Xrotation Yrotation
            JOINT LeftForeArm
            {
              OFFSET 34.3528 0 0
              CHANNELS 6 Xposition Yposition Zposition Zrotation Xrotation Yrotation
              JOINT LeftHand
              {
                OFFSET 25.4606 0 0
                CHANNELS 6 Xposition Yposition Zposition Zrotation Xrotation Yrotation
                End Site
                {
                  OFFSET 14.1974 0 0
                }
              }
            }
          }
        }
        JOINT RightShoulder
        {
          OFFSET -3.76739 23.4442 -0.177979
          CHANNELS 6 Xposition Yposition Zposition Zrotation Xrotation Yrotation
          JOINT RightArm
          {
            OFFSET -9.21107 0 0
            CHANNELS 6 Xposition Yposition Zposition Zrotation Xrotation Yrotation
            JOINT RightForeArm
            {
              OFFSET -34.3528 0 0
              CHANNELS 6 Xposition Yposition Zposition Zrotation Xrotation Yrotation
              JOINT RightHand
              {
                OFFSET -25.4606 0 0
                CHANNELS 6 Xposition Yposition Zposition Zrotation Xrotation Yrotation
                End Site
                {
                  OFFSET -14.1974 0 0
                }
              }
            }
          }
        }
      }
    }
    JOINT LeftUpLeg
    {
      OFFSET 9.46496 0 0
      CHANNELS 6 Xposition Yposition Zposition Zrotation Xrotation Yrotation
      JOINT LeftLeg
      {
        OFFSET 0 -36.0737 0
        CHANNELS 6 Xposition Yposition Zposition Zrotation Xrotation Yrotation
        JOINT LeftFoot
        {
          OFFSET 0 -40.8088 0
          CHANNELS 6 Xposition Yposition Zposition Zrotation Xrotation Yrotation
          JOINT LeftToeBase
          {
            OFFSET 0 -6.15222 14.1974
            CHANNELS 6 Xposition Yposition Zposition Zrotation Xrotation Yrotation
            End Site
            {
              OFFSET 0 0 3.78598
            }
          }
        }
      }
    }
    JOINT RightUpLeg
    {
      OFFSET -9.46496 0 0
      CHANNELS 6 Xposition Yposition Zposition Zrotation Xrotation Yrotation
      JOINT RightLeg
      {
        OFFSET 0 -36.0737 0
        CHANNELS 6 Xposition Yposition Zposition Zrotation Xrotation Yrotation
        JOINT RightFoot
        {
          OFFSET 0 -40.8088 0
          CHANNELS 6 Xposition Yposition Zposition Zrotation Xrotation Yrotation
          JOINT RightToeBase
          {
            OFFSET 0 -6.15222 14.1974
            CHANNELS 6 Xposition Yposition Zposition Zrotation Xrotation Yrotation
            End Site
            {
              OFFSET 0 0 3.78598
            }
          }
        }
      }
    }
  }
}
MOTION
Frames:	6
Frame Time:	0.004
0 0 0 0 0 -0 3.87941 78.563 -120.545 3.29263 1.32932 96.8368 0 7.76127 0 -2.11771 1.79815 1.89275 0 24.7858 0 -1.66702 7.72311 1.97207 0 24.684 2.244 -1.4745 16.9172 -14.3939 0 13.2509 -1.89299 11.073 -7.75859 -12.7125 3.79413 23.4442 -0.177979 5.1382 8.22625 -4.56327 9.21107 0 0 -30.5521 29.7042 9.68201 34.3528 2.84217e-014 0 11.3773 -1.97466 -16.691 25.4606 2.84217e-014 0 19.203 2.22497 14.8394 -3.76739 23.4442 -0.177979 -5.20319 8.80248 -1.3367 -9.21107 0 3.55271e-015 25.0023 14.6984 -5.65889 -34.3528 0 0 0.516139 11.3448 1.08671 -25.4606 0 0 7.11651 11.2523 -1.43987 9.46496 0 3.55271e-015 -6.04825 -6.56111 4.52374 1.42109e-014 -36.0737 7.10543e-015 -1.51978 27.7947 -7.56387 0 -40.8088 8.88178e-016 0.283094 -13.5367 9.38521 0 -6.15222 14.1974 -0 -3.97569e-016 -0 -9.46496 1.42109e-014 3.55271e-015 -5.42298 -3.16652 1.57848 0 -36.0737 0 7.91618 26.08 0.90744 -1.42109e-014 -40.8088 0 -19.4211 -16.2421 -39.1849 0 -6.15222 14.1974 -1.59028e-015 0 -3.18055e-015 
0 0 0 0 0 -0 3.90214 78.5645 -120.498 3.32957 1.31154 96.7719 -1.42109e-014 7.76127 0 -2.16271 1.81706 1.90342 -2.84217e-014 24.7858 0 -1.63186 7.74065 1.97955 -1.42109e-014 24.684 2.244 -1.45851 16.9431 -14.385 -1.42109e-014 13.2509 -1.89299 11.0722 -7.77156 -12.7024 3.79413 23.4442 -0.177979 5.14485 8.20765 -4.5482 9.21107 2.84217e-014 7.10543e-015 -30.5426 29.7273 9.66145 34.3528 0 0 11.3899 -2.08292 -16.6733 25.4606 0 0 19.2077 2.12189 14.8651 -3.76739 23.4442 -0.177979 -5.19796 8.80333 -1.31396 -9.21107 0 -5.32907e-015 24.9775 14.7157 -5.60127 -34.3528 -1.42109e-014 7.10543e-015 0.532501 11.2453 1.1268 -25.4606 -1.42109e-014 0 6.493 11.1663 -1.32728 9.46496 0 0 -6.00529 -6.49719 4.52157 1.42109e-014 -36.0737 0 -1.52141 27.7683 -7.52986 -1.42109e-014 -40.8088 -1.77636e-015 0.291433 -13.5675 9.43661 0 -6.15222 14.1974 1.59028e-015 0 1.59028e-015 -9.46496 -1.42109e-014 0 -5.40046 -3.28613 1.68389 0 -36.0737 0 8.01706 26.3409 0.718377 0 -40.8088 0 -19.4382 -16.1956 -39.0639 -1.42109e-014 -6.15222 14.1974 0 0 -0 
0 0 0 0 0 -0 3.91616 78.5652 -120.449 3.39177 1.28389 96.7414 0 7.76127 0 -2.19393 1.89485 1.89745 -1.42109e-014 24.7858 0 -1.59194 7.7198 1.97993 -1.42109e-014 24.684 2.244 -1.45079 16.965 -14.3661 0 13.2509 -1.89299 11.0661 -7.77498 -12.6839 3.79413 23.4442 -0.177979 5.15786 8.18285 -4.54155 9.21107 0 0 -30.506 29.6353 9.63363 34.3528 0 0 11.3432 -2.11499 -16.6771 25.4606 -2.84217e-014 0 19.2262 2.08176 14.8416 -3.76739 23.4442 -0.177979 -5.20474 8.80346 -1.29274 -9.21107 2.84217e-014 -7.10543e-015 24.9478 14.6883 -5.54034 -34.3528 -2.84217e-014 7.10543e-015 0.530407 11.231 1.16433 -25.4606 0 0 6.21187 11.1569 -1.29398 9.46496 -1.42109e-014 0 -5.9561 -6.41949 4.48893 0 -36.0737 0 -1.51415 27.7526 -7.56797 0 -40.8088 -3.55271e-015 0.381242 -13.6242 9.53029 -1.42109e-014 -6.15222 14.1974 1.59028e-015 -3.97569e-016 1.59028e-015 -9.46496 0 0 -5.37502 -3.39592 1.77896 0 -36.0737 0 8.1359 26.6164 0.551262 0 -40.8088 3.55271e-015 -19.5283 -16.0981 -38.9842 1.42109e-014 -6.15222 14.1974 1.59028e-015 1.59028e-015 -3.18055e-015 
0 0 0 0 0 -0 3.93855 78.5659 -120.404 3.4498 1.26 96.6861 1.42109e-014 7.76127 0 -2.22182 1.93546 1.90464 0 24.7858 0 -1.56831 7.73957 1.98002 1.42109e-014 24.684 2.244 -1.40018 16.9836 -14.3517 0 13.2509 -1.89299 11.0183 -7.79427 -12.6768 3.79413 23.4442 -0.177979 5.17967 8.17109 -4.5332 9.21107 2.84217e-014 3.55271e-015 -30.4733 29.5741 9.598 34.3528 0 1.42109e-014 11.2632 -2.18834 -16.7162 25.4606 0 0 19.4933 2.05294 14.9371 -3.76739 23.4442 -0.177979 -5.1935 8.81051 -1.26286 -9.21107 5.68434e-014 -1.77636e-015 24.9116 14.638 -5.4839 -34.3528 0 7.10543e-015 0.51926 11.2435 1.21472 -25.4606 0 0 6.0064 11.1664 -1.39353 9.46496 -1.42109e-014 -3.55271e-015 -5.91766 -6.34251 4.49325 0 -36.0737 7.10543e-015 -1.48044 27.7396 -7.56582 1.42109e-014 -40.8088 -3.10862e-015 0.423971 -13.674 9.57582 0 -6.15222 14.1974 -1.59028e-015 7.95139e-016 3.18055e-015 -9.46496 0 -3.55271e-015 -5.36796 -3.51345 1.91849 0 -36.0737 3.55271e-015 8.30645 26.9018 0.368351 1.42109e-014 -40.8088 -1.77636e-015 -19.6962 -15.9861 -38.931 1.42109e-014 -6.15222 14.1974 8.82781e-032 -1.59028e-015 3.18055e-015 
0 0 0 0 0 -0 3.95545 78.5664 -120.357 3.51768 1.22966 96.6319 0 7.76127 -3.55271e-015 -2.24271 2.00437 1.90865 -1.42109e-014 24.7858 0 -1.54031 7.73573 1.97963 -1.42109e-014 24.684 2.244 -1.37664 17.0221 -14.3369 1.42109e-014 13.2509 -1.89299 11.0074 -7.83196 -12.6604 3.79413 23.4442 -0.177979 5.19162 8.1683 -4.5292 9.21107 2.84217e-014 3.55271e-015 -30.4418 29.5278 9.56924 34.3528 0 -1.42109e-014 11.2268 -2.23584 -16.7156 25.4606 0 0 19.4704 1.99706 14.9381 -3.76739 23.4442 -0.177979 -5.18147 8.81722 -1.24106 -9.21107 0 0 24.872 14.6235 -5.41826 -34.3528 -1.42109e-014 0 0.494403 11.2452 1.26706 -25.4606 -1.42109e-014 2.84217e-014 5.78858 11.1722 -1.36381 9.46496 0 0 -5.86909 -6.27472 4.49274 1.42109e-014 -36.0737 0 -1.45718 27.7616 -7.63556 0 -40.8088 8.88178e-016 0.472806 -13.7259 9.71082 0 -6.15222 14.1974 1.59028e-015 3.97569e-016 3.18055e-015 -9.46496 -1.42109e-014 0 -5.37013 -3.66432 2.05089 1.42109e-014 -36.0737 0 8.50867 27.259 0.168994 0 -40.8088 1.77636e-015 -19.6451 -15.9723 -38.8429 0 -6.15222 14.1974 -0 0 3.18055e-015 
0 0 0 0 0 -0 3.97017 78.5669 -120.311 3.58977 1.20105 96.5784 -1.42109e-014 7.76127 0 -2.26746 2.07699 1.9158 0 24.7858 3.55271e-015 -1.50554 7.73832 1.97901 0 24.684 2.244 -1.35885 17.0229 -14.3197 -1.42109e-014 13.2509 -1.89299 10.9909 -7.81968 -12.6468 3.79413 23.4442 -0.177979 5.20063 8.14643 -4.53992 9.21107 0 0 -30.3943 29.4281 9.54464 34.3528 -2.84217e-014 0 11.1611 -2.22931 -16.7209 25.4606 2.84217e-014 0 19.533 2.00304 14.9397 -3.76739 23.4442 -0.177979 -5.1802 8.81546 -1.22787 -9.21107 2.84217e-014 -1.77636e-015 24.8376 14.583 -5.35025 -34.3528 0 -7.10543e-015 0.457201 11.2731 1.31828 -25.4606 0 1.42109e-014 5.65662 11.2025 -1.3505 9.46496 -1.42109e-014 0 -5.82891 -6.20615 4.50183 1.42109e-014 -36.0737 0 -1.42127 27.7707 -7.61208 0 -40.8088 3.55271e-015 0.489431 -13.7768 9.74566 1.42109e-014 -6.15222 14.1974 -3.18055e-015 0 -1.59028e-015 -9.46496 0 0 -5.37143 -3.83339 2.16643 -1.42109e-014 -36.0737 0 8.68383 27.6633 0.042272 0 -40.8088 1.77636e-015 -19.6217 -15.9544 -38.7441 0 -6.15222 14.1974 1.59028e-015 2.38542e-015 -6.36111e-015 
